<svg width="25" height="25" viewBox="0 0 25 25" fill="none" xmlns="http://www.w3.org/2000/svg">
<path fill-rule="evenodd" clip-rule="evenodd" d="M22.4349 1.54841C21.4511 0.564593 19.856 0.56459 18.8721 1.54841L12.4275 7.99305L5.98288 1.54841C4.99906 0.56459 3.40397 0.564593 2.42015 1.54841L1.23257 2.73599C0.24875 3.71981 0.24875 5.3149 1.23257 6.29872L7.6772 12.7434L1.23258 19.188C0.248764 20.1718 0.248764 21.7669 1.23258 22.7507L2.42016 23.9383C3.40398 24.9221 4.99907 24.9221 5.98289 23.9383L12.4275 17.4937L18.8721 23.9383C19.856 24.9221 21.451 24.9221 22.4349 23.9383L23.6224 22.7507C24.6063 21.7669 24.6063 20.1718 23.6224 19.188L17.1778 12.7434L23.6225 6.29872C24.6063 5.3149 24.6063 3.71981 23.6225 2.73599L22.4349 1.54841Z" fill="url(#paint0_linear_1_63)"/>
<defs>
<linearGradient id="paint0_linear_1_63" x1="-0.810804" y1="27.4661" x2="14.2063" y2="-12.3908" gradientUnits="userSpaceOnUse">
<stop stop-color="#EA4080"/>
<stop offset="1" stop-color="#EE805F"/>
</linearGradient>
</defs>
</svg>
