<svg width="483" height="483" viewBox="0 0 483 483" fill="none" xmlns="http://www.w3.org/2000/svg">
<path d="M241.18 482.36C374.38 482.36 482.36 374.38 482.36 241.18C482.36 107.98 374.38 0 241.18 0C107.98 0 0 107.98 0 241.18C0 374.38 107.98 482.36 241.18 482.36Z" fill="url(#paint0_radial_862_12558)"/>
<g style="mix-blend-mode:soft-light">
<path d="M241.18 482.36C374.38 482.36 482.36 374.38 482.36 241.18C482.36 107.98 374.38 0 241.18 0C107.98 0 0 107.98 0 241.18C0 374.38 107.98 482.36 241.18 482.36Z" fill="url(#paint1_radial_862_12558)"/>
</g>
<g style="mix-blend-mode:soft-light">
<path d="M241.18 482.36C374.38 482.36 482.36 374.38 482.36 241.18C482.36 107.98 374.38 0 241.18 0C107.98 0 0 107.98 0 241.18C0 374.38 107.98 482.36 241.18 482.36Z" fill="url(#paint2_radial_862_12558)"/>
</g>
<g style="mix-blend-mode:overlay">
<path d="M241.18 482.36C374.38 482.36 482.36 374.38 482.36 241.18C482.36 107.98 374.38 0 241.18 0C107.98 0 0 107.98 0 241.18C0 374.38 107.98 482.36 241.18 482.36Z" fill="url(#paint3_radial_862_12558)" fill-opacity="0.7"/>
</g>
<mask id="mask0_862_12558" style="mask-type:alpha" maskUnits="userSpaceOnUse" x="0" y="0" width="483" height="483">
<path d="M241.18 482.36C374.38 482.36 482.36 374.38 482.36 241.18C482.36 107.98 374.38 0 241.18 0C107.98 0 0 107.98 0 241.18C0 374.38 107.98 482.36 241.18 482.36Z" fill="white"/>
</mask>
<g mask="url(#mask0_862_12558)">
<g filter="url(#filter0_f_862_12558)">
<path d="M-1.3759 234.299C-1.11402 230.872 0.0137008 230.529 0.342619 234.008C0.708055 237.874 -0.00231624 245.646 0.16871 250.335C0.621554 262.748 2.52441 273.541 4.48605 282.32C10.8075 310.612 19.5617 328.843 27.7268 344.288C54.5663 395.06 83.9667 420.77 112.648 440.147C154.689 468.549 197.072 477.584 239.49 479.5C240.56 479.548 240.738 486.518 239.686 487.425C237.788 489.061 235.436 487.437 233.494 487.369C227.915 487.174 222.335 486.791 216.756 486.211C200.213 484.492 183.67 480.991 167.162 475.358C122.275 460.044 73.8765 433.821 31.6092 359.962C28.9502 355.316 26.3124 350.424 23.7118 345.167C21.6321 340.963 19.5726 336.556 17.5493 331.843C10.8946 316.342 -4.61323 276.658 -1.3759 234.299ZM239.52 487.5C238.499 487.531 238.241 481.034 239.214 479.685C240.684 477.647 242.888 479.326 244.439 479.229C250.877 478.826 257.314 478.229 263.75 477.421C281.395 475.205 299.028 471.422 316.621 465.596C360.257 451.145 407.17 429.115 448.305 361.431C450.923 357.123 453.518 352.553 456.079 347.641C463.86 332.712 483.361 293.084 481.107 243.821C480.917 239.668 482.181 237.181 482.747 240.743C483.467 245.279 483.175 254.736 482.977 259.768C482.341 275.883 479.866 289.512 477.257 300.518C468.987 335.399 457.376 355.623 446.744 372.51C412.184 427.397 374.648 449.524 338.155 465.424C305.424 479.686 272.444 486.484 239.52 487.5Z" fill="#401C02"/>
</g>
<g filter="url(#filter1_f_862_12558)">
<path d="M-1.3759 234.299C-1.11402 230.872 0.0137008 230.529 0.342619 234.008C0.708055 237.874 -0.00231624 245.646 0.16871 250.335C0.621554 262.748 2.52441 273.541 4.48605 282.32C10.8075 310.612 19.5617 328.843 27.7268 344.288C54.5663 395.06 83.9667 420.77 112.648 440.147C154.689 468.549 197.072 477.584 239.49 479.5C240.56 479.548 240.738 486.518 239.686 487.425C237.788 489.061 235.436 487.437 233.494 487.369C227.915 487.174 222.335 486.791 216.756 486.211C200.213 484.492 183.67 480.991 167.162 475.358C122.275 460.044 73.8765 433.821 31.6092 359.962C28.9502 355.316 26.3124 350.424 23.7118 345.167C21.6321 340.963 19.5726 336.556 17.5493 331.843C10.8946 316.342 -4.61323 276.658 -1.3759 234.299ZM239.52 487.5C238.499 487.531 238.241 481.034 239.214 479.685C240.684 477.647 242.888 479.326 244.439 479.229C250.877 478.826 257.314 478.229 263.75 477.421C281.395 475.205 299.028 471.422 316.621 465.596C360.257 451.145 407.17 429.115 448.305 361.431C450.923 357.123 453.518 352.553 456.079 347.641C463.86 332.712 483.361 293.084 481.107 243.821C480.917 239.668 482.181 237.181 482.747 240.743C483.467 245.279 483.175 254.736 482.977 259.768C482.341 275.883 479.866 289.512 477.257 300.518C468.987 335.399 457.376 355.623 446.744 372.51C412.184 427.397 374.648 449.524 338.155 465.424C305.424 479.686 272.444 486.484 239.52 487.5Z" fill="#401C02"/>
</g>
</g>
<path d="M142.775 316.82C154.285 313.51 166.775 312.65 178.635 312.51C208.123 312.166 237.274 318.803 263.705 331.88C270.605 335.29 276.705 324.94 269.765 321.51C241.846 307.617 211.071 300.426 179.885 300.51C166.565 300.59 152.465 301.57 139.585 305.27C132.175 307.4 135.325 318.98 142.775 316.84V316.82Z" fill="url(#paint4_radial_862_12558)"/>
<path d="M142.775 316.82C154.285 313.51 166.775 312.65 178.635 312.51C208.123 312.166 237.274 318.803 263.705 331.88C270.605 335.29 276.705 324.94 269.765 321.51C241.846 307.617 211.071 300.426 179.885 300.51C166.565 300.59 152.465 301.57 139.585 305.27C132.175 307.4 135.325 318.98 142.775 316.84V316.82Z" stroke="url(#paint5_linear_862_12558)" stroke-width="2.5" stroke-miterlimit="10"/>
<path d="M100.085 136.92C100.315 136.54 100.575 136.19 100.825 135.82C101.575 134.71 99.7748 137.05 100.765 135.91C101.305 135.29 101.825 134.66 102.395 134.06C104.872 131.435 107.785 129.26 111.005 127.63C119.245 123.29 129.915 122.3 138.485 125.78C143.725 127.91 150.615 133.01 157.045 135.23C167.945 138.99 179.925 137 190.735 133.97C200.015 131.38 196.075 116.9 186.735 119.51C177.185 122.18 166.475 123.69 158.335 119.61C151.105 115.99 144.715 111.18 136.585 109.61C118.845 106.21 96.8148 113.2 87.1248 129.34C82.1248 137.63 95.1248 145.18 100.075 136.91L100.085 136.92Z" fill="#42210B"/>
<path d="M166.616 180.142C168.555 162.548 159.5 147.113 146.391 145.668C133.282 144.223 121.083 157.315 119.143 174.909C117.204 192.503 126.259 207.937 139.368 209.382C152.477 210.827 164.676 197.736 166.616 180.142Z" fill="url(#paint6_radial_862_12558)"/>
<path d="M166.616 180.142C168.555 162.548 159.5 147.113 146.391 145.668C133.282 144.223 121.083 157.315 119.143 174.909C117.204 192.503 126.259 207.937 139.368 209.382C152.477 210.827 164.676 197.736 166.616 180.142Z" stroke="url(#paint7_linear_862_12558)" stroke-width="2" stroke-miterlimit="10"/>
<path d="M298.066 197.167C300.013 179.643 291.007 164.262 277.95 162.811C264.893 161.36 252.73 174.39 250.783 191.914C248.836 209.437 257.842 224.819 270.899 226.27C283.956 227.721 296.119 214.691 298.066 197.167Z" fill="url(#paint8_radial_862_12558)"/>
<path d="M298.066 197.167C300.013 179.643 291.007 164.262 277.95 162.811C264.893 161.36 252.73 174.39 250.783 191.914C248.836 209.437 257.842 224.819 270.899 226.27C283.956 227.721 296.119 214.691 298.066 197.167Z" stroke="url(#paint9_linear_862_12558)" stroke-width="2" stroke-miterlimit="10"/>
<path d="M254.905 116.72L255.395 116.32C256.825 115.15 254.975 116.6 255.625 116.13C257.345 114.86 259.075 113.61 260.865 112.43C266.302 108.759 272.115 105.678 278.205 103.24C294.715 96.8899 312.615 96.6099 326.795 108.44C334.165 114.58 344.795 104.02 337.405 97.8299C319.825 83.1699 297.665 80.4299 276.315 87.9999C264.654 92.0805 253.816 98.2137 244.315 106.11C236.945 112.36 247.595 122.92 254.925 116.72H254.905Z" fill="#42210B"/>
<path style="mix-blend-mode:screen" d="M295.215 272.44C342.153 272.44 380.205 234.389 380.205 187.45C380.205 140.511 342.153 102.46 295.215 102.46C248.276 102.46 210.225 140.511 210.225 187.45C210.225 234.389 248.276 272.44 295.215 272.44Z" fill="url(#paint10_linear_862_12558)"/>
<path d="M383.175 161.82H380.425C374.277 141.403 361.002 123.871 343.017 112.417C325.032 100.962 303.532 96.3449 282.43 99.4059C261.328 102.467 242.026 113.002 228.037 129.095C214.048 145.188 206.301 165.768 206.207 187.091C206.113 208.414 213.677 229.062 227.524 245.278C241.37 261.493 260.578 272.199 281.653 275.446C302.727 278.693 324.267 274.266 342.352 262.971C360.438 251.675 373.867 234.262 380.195 213.9H383.195C385.034 213.9 386.798 213.17 388.099 211.871C389.4 210.571 390.133 208.809 390.135 206.97V168.74C390.133 167.829 389.951 166.927 389.6 166.086C389.248 165.245 388.735 164.481 388.089 163.838C387.442 163.196 386.676 162.687 385.833 162.341C384.99 161.994 384.087 161.817 383.175 161.82ZM295.175 268.46C278.217 268.469 261.684 263.155 247.906 253.267C234.129 243.38 223.802 229.417 218.382 213.348C212.962 197.279 212.722 179.915 217.696 163.702C222.67 147.49 232.607 133.247 246.106 122.983C259.605 112.718 275.985 106.95 292.937 106.49C309.89 106.03 326.558 110.902 340.594 120.42C354.63 129.938 365.324 143.621 371.169 159.54C377.015 175.459 377.717 192.811 373.175 209.15C368.423 226.182 358.234 241.193 344.16 251.897C330.085 262.601 312.898 268.41 295.215 268.44L295.175 268.46Z" fill="black"/>
<path d="M386.635 190.68C386.925 190.86 387.205 191.05 387.485 191.24L388.485 191.94C388.8 192.147 389.101 192.374 389.385 192.62C392.263 194.922 394.964 197.435 397.465 200.14C406.156 209.7 412.811 220.927 417.025 233.14C424.155 253.21 425.495 274.81 423.565 295.9C422.05 311.115 419.114 326.153 414.795 340.82C410.335 356.37 406.575 371.82 406.195 388.05C405.634 416.897 414.961 445.067 432.625 467.88C435.525 471.66 442.035 467.88 439.105 464.09C423.105 443.2 413.855 418.38 413.665 391.96C413.545 374.96 417.385 359.02 422.025 342.81C426.22 328.382 429.151 313.617 430.785 298.68C434.515 263.3 428.785 224.82 404.845 197.12C400.705 192.33 395.845 187.47 390.415 184.17C386.275 181.67 382.495 188.17 386.635 190.64V190.68Z" fill="black"/>
<defs>
<filter id="filter0_f_862_12558" x="-26.8149" y="206.558" width="535.022" height="306.595" filterUnits="userSpaceOnUse" color-interpolation-filters="sRGB">
<feFlood flood-opacity="0" result="BackgroundImageFix"/>
<feBlend mode="normal" in="SourceGraphic" in2="BackgroundImageFix" result="shape"/>
<feGaussianBlur stdDeviation="12.5" result="effect1_foregroundBlur_862_12558"/>
</filter>
<filter id="filter1_f_862_12558" x="-41.8149" y="191.558" width="565.022" height="336.595" filterUnits="userSpaceOnUse" color-interpolation-filters="sRGB">
<feFlood flood-opacity="0" result="BackgroundImageFix"/>
<feBlend mode="normal" in="SourceGraphic" in2="BackgroundImageFix" result="shape"/>
<feGaussianBlur stdDeviation="20" result="effect1_foregroundBlur_862_12558"/>
</filter>
<radialGradient id="paint0_radial_862_12558" cx="0" cy="0" r="1" gradientUnits="userSpaceOnUse" gradientTransform="translate(241 -4.53898e-06) rotate(90) scale(482)">
<stop stop-color="#FFDE43"/>
<stop offset="1" stop-color="#FFBC00"/>
</radialGradient>
<radialGradient id="paint1_radial_862_12558" cx="0" cy="0" r="1" gradientUnits="userSpaceOnUse" gradientTransform="translate(241 64.5) rotate(90) scale(417.5)">
<stop stop-color="white" stop-opacity="0.5"/>
<stop offset="0.782278"/>
</radialGradient>
<radialGradient id="paint2_radial_862_12558" cx="0" cy="0" r="1" gradientUnits="userSpaceOnUse" gradientTransform="translate(241 64.5) rotate(90) scale(417.5)">
<stop stop-color="white" stop-opacity="0.5"/>
<stop offset="0.782278"/>
</radialGradient>
<radialGradient id="paint3_radial_862_12558" cx="0" cy="0" r="1" gradientUnits="userSpaceOnUse" gradientTransform="translate(241 -52.5) rotate(90) scale(534.5 722.835)">
<stop offset="0.0922635" stop-color="white"/>
<stop offset="0.670207" stop-color="white" stop-opacity="0"/>
</radialGradient>
<radialGradient id="paint4_radial_862_12558" cx="0" cy="0" r="1" gradientUnits="userSpaceOnUse" gradientTransform="translate(204.093 316.47) scale(51.8803 32.373)">
<stop stop-color="#743C1C"/>
<stop offset="1" stop-color="#401C02"/>
</radialGradient>
<linearGradient id="paint5_linear_862_12558" x1="204.093" y1="333.462" x2="204.093" y2="299.478" gradientUnits="userSpaceOnUse">
<stop offset="0.265625" stop-color="#FFDE43"/>
<stop offset="1" stop-color="#F79D14"/>
</linearGradient>
<radialGradient id="paint6_radial_862_12558" cx="0" cy="0" r="1" gradientUnits="userSpaceOnUse" gradientTransform="translate(142.859 177.568) rotate(-83.71) scale(40.856 23.9214)">
<stop stop-color="#743C1C"/>
<stop offset="1" stop-color="#401C02"/>
</radialGradient>
<linearGradient id="paint7_linear_862_12558" x1="167.952" y1="180.289" x2="117.616" y2="174.741" gradientUnits="userSpaceOnUse">
<stop stop-color="#FFDE43"/>
<stop offset="0.22" stop-color="#FED93F"/>
<stop offset="0.51" stop-color="#FCC934"/>
<stop offset="0.82" stop-color="#F9AF21"/>
<stop offset="1" stop-color="#F79D14"/>
</linearGradient>
<radialGradient id="paint8_radial_862_12558" cx="0" cy="0" r="1" gradientUnits="userSpaceOnUse" gradientTransform="translate(274.404 194.583) rotate(-83.6598) scale(40.6963 23.828)">
<stop stop-color="#743C1C"/>
<stop offset="1" stop-color="#401C02"/>
</radialGradient>
<linearGradient id="paint9_linear_862_12558" x1="299.396" y1="197.315" x2="249.262" y2="191.744" gradientUnits="userSpaceOnUse">
<stop stop-color="#FFDE43"/>
<stop offset="0.22" stop-color="#FED93F"/>
<stop offset="0.51" stop-color="#FCC934"/>
<stop offset="0.82" stop-color="#F9AF21"/>
<stop offset="1" stop-color="#F79D14"/>
</linearGradient>
<linearGradient id="paint10_linear_862_12558" x1="252.715" y1="261.06" x2="337.725" y2="113.83" gradientUnits="userSpaceOnUse">
<stop offset="0.03" stop-color="white" stop-opacity="0"/>
<stop offset="0.15" stop-color="white" stop-opacity="0.12"/>
<stop offset="0.45" stop-color="white" stop-opacity="0.41"/>
<stop offset="0.71" stop-color="white" stop-opacity="0.62"/>
<stop offset="0.9" stop-color="white" stop-opacity="0.75"/>
<stop offset="1" stop-color="white" stop-opacity="0.8"/>
</linearGradient>
</defs>
</svg>
