<svg width="22" height="25" viewBox="0 0 22 25" fill="none" xmlns="http://www.w3.org/2000/svg">
<path fill-rule="evenodd" clip-rule="evenodd" d="M2.5142 5.33444C1.90709 5.73232 1.90709 6.6222 2.5142 7.02008L8.98929 11.2637C9.65945 11.7029 10.5493 11.2221 10.5493 10.4208V8.35687C11.333 8.32425 12.1202 8.444 12.8662 8.71459C14.0682 9.15066 15.1014 9.95607 15.8176 11.0154C16.5337 12.0747 16.8962 13.3336 16.8529 14.6116C16.8096 15.8896 16.3629 17.1211 15.5767 18.1295C14.7905 19.138 13.7053 19.8717 12.4765 20.2255C11.2477 20.5793 9.93843 20.5349 8.73637 20.0989C7.53431 19.6628 6.50115 18.8574 5.78497 17.7981C5.32133 17.1123 5.00594 16.3428 4.85291 15.5388C4.71418 14.8098 4.14842 14.1815 3.4068 14.1564L1.56937 14.0942C0.827751 14.0691 0.197331 14.6521 0.26635 15.3909C0.431012 17.1535 1.03622 18.8544 2.03573 20.3328C3.28719 22.1839 5.09254 23.5913 7.19304 24.3533C9.29354 25.1152 11.5813 25.1927 13.7286 24.5745C15.8758 23.9563 17.7722 22.6742 19.146 20.912C20.5197 19.1498 21.3004 16.9979 21.376 14.7647C21.4516 12.5316 20.8183 10.3318 19.5668 8.48069C18.3153 6.62959 16.51 5.22219 14.4095 4.46021C13.1657 4.00903 11.8563 3.79785 10.5493 3.82897V1.93368C10.5493 1.13243 9.65944 0.651661 8.98929 1.09086L2.5142 5.33444Z" fill="url(#paint0_linear_1_60)"/>
<defs>
<linearGradient id="paint0_linear_1_60" x1="0.261169" y1="12.8952" x2="26.965" y2="8.0247" gradientUnits="userSpaceOnUse">
<stop stop-color="#F3D677"/>
<stop offset="1" stop-color="#F3D97D"/>
</linearGradient>
</defs>
</svg>
